<?xml version="1.0" encoding="UTF-8" standalone="no"?>
<!DOCTYPE svg PUBLIC "-//W3C//DTD SVG 1.1//EN"
 "http://www.w3.org/Graphics/SVG/1.1/DTD/svg11.dtd">
<!-- Generated by graphviz version 2.50.0 (20211204.2007)
 -->
<!-- Title: main.cpp Pages: 1 -->
<svg width="3139pt" height="173pt"
 viewBox="0.00 0.00 3139.00 173.00" xmlns="http://www.w3.org/2000/svg" xmlns:xlink="http://www.w3.org/1999/xlink">
<g id="graph0" class="graph" transform="scale(1 1) rotate(0) translate(4 169)">
<title>main.cpp</title>
<!-- Node1 -->
<g id="node1" class="node">
<title>Node1</title>
<g id="a_node1"><a xlink:title=" ">
<polygon fill="#bfbfbf" stroke="black" points="1473,-145.5 1473,-164.5 1529,-164.5 1529,-145.5 1473,-145.5"/>
<text text-anchor="middle" x="1501" y="-152.5" font-family="Helvetica,sans-Serif" font-size="10.00">main.cpp</text>
</a>
</g>
</g>
<!-- Node2 -->
<g id="node2" class="node">
<title>Node2</title>
<g id="a_node2"><a xlink:title=" ">
<polygon fill="none" stroke="#bfbfbf" points="0,-73 0,-92 54,-92 54,-73 0,-73"/>
<text text-anchor="middle" x="27" y="-80" font-family="Helvetica,sans-Serif" font-size="10.00">iostream</text>
</a>
</g>
</g>
<!-- Node1&#45;&gt;Node2 -->
<g id="edge1" class="edge">
<title>Node1&#45;&gt;Node2</title>
<path fill="none" stroke="midnightblue" d="M1472.83,-154.09C1283.63,-154.59 201.23,-155.39 63,-109 56.23,-106.73 49.62,-102.73 43.95,-98.57"/>
<polygon fill="midnightblue" stroke="midnightblue" points="45.91,-95.65 35.92,-92.11 41.52,-101.1 45.91,-95.65"/>
</g>
<!-- Node3 -->
<g id="node3" class="node">
<title>Node3</title>
<g id="a_node3"><a xlink:title=" ">
<polygon fill="none" stroke="#bfbfbf" points="72.5,-73 72.5,-92 195.5,-92 195.5,-73 72.5,-73"/>
<text text-anchor="middle" x="134" y="-80" font-family="Helvetica,sans-Serif" font-size="10.00">boost/circular_buffer.hpp</text>
</a>
</g>
</g>
<!-- Node1&#45;&gt;Node3 -->
<g id="edge2" class="edge">
<title>Node1&#45;&gt;Node3</title>
<path fill="none" stroke="midnightblue" d="M1472.84,-154.2C1307.35,-155.23 459.95,-157.97 205,-109 190.59,-106.23 175.19,-101 162.43,-96"/>
<polygon fill="midnightblue" stroke="midnightblue" points="163.41,-92.62 152.83,-92.08 160.77,-99.1 163.41,-92.62"/>
</g>
<!-- Node4 -->
<g id="node4" class="node">
<title>Node4</title>
<g id="a_node4"><a xlink:title=" ">
<polygon fill="none" stroke="#bfbfbf" points="214,-73 214,-92 310,-92 310,-73 214,-73"/>
<text text-anchor="middle" x="262" y="-80" font-family="Helvetica,sans-Serif" font-size="10.00">boost/optional.hpp</text>
</a>
</g>
</g>
<!-- Node1&#45;&gt;Node4 -->
<g id="edge3" class="edge">
<title>Node1&#45;&gt;Node4</title>
<path fill="none" stroke="midnightblue" d="M1472.96,-153.57C1304.91,-150.92 434.55,-135.98 319,-109 307.76,-106.38 296,-101.52 286.11,-96.75"/>
<polygon fill="midnightblue" stroke="midnightblue" points="287.43,-93.49 276.92,-92.08 284.26,-99.73 287.43,-93.49"/>
</g>
<!-- Node5 -->
<g id="node5" class="node">
<title>Node5</title>
<g id="a_node5"><a xlink:title=" ">
<polygon fill="none" stroke="#bfbfbf" points="328.5,-73 328.5,-92 435.5,-92 435.5,-73 328.5,-73"/>
<text text-anchor="middle" x="382" y="-80" font-family="Helvetica,sans-Serif" font-size="10.00">boost/filesystem.hpp</text>
</a>
</g>
</g>
<!-- Node1&#45;&gt;Node5 -->
<g id="edge4" class="edge">
<title>Node1&#45;&gt;Node5</title>
<path fill="none" stroke="midnightblue" d="M1472.72,-154.1C1325.87,-154.39 649.21,-153.29 445,-109 432.34,-106.25 418.94,-101.17 407.78,-96.26"/>
<polygon fill="midnightblue" stroke="midnightblue" points="409.16,-93.04 398.61,-92.05 406.24,-99.41 409.16,-93.04"/>
</g>
<!-- Node6 -->
<g id="node6" class="node">
<title>Node6</title>
<g id="a_node6"><a xlink:title=" ">
<polygon fill="none" stroke="#bfbfbf" points="454,-73 454,-92 588,-92 588,-73 454,-73"/>
<text text-anchor="middle" x="521" y="-80" font-family="Helvetica,sans-Serif" font-size="10.00">boost/program_options.hpp</text>
</a>
</g>
</g>
<!-- Node1&#45;&gt;Node6 -->
<g id="edge5" class="edge">
<title>Node1&#45;&gt;Node6</title>
<path fill="none" stroke="midnightblue" d="M1472.98,-153.64C1339.91,-151.75 771.09,-141.89 597,-109 581.48,-106.07 564.79,-100.73 551.02,-95.69"/>
<polygon fill="midnightblue" stroke="midnightblue" points="552.15,-92.37 541.56,-92.11 549.67,-98.92 552.15,-92.37"/>
</g>
<!-- Node7 -->
<g id="node7" class="node">
<title>Node7</title>
<g id="a_node7"><a xlink:title=" ">
<polygon fill="none" stroke="#bfbfbf" points="606.5,-67.5 606.5,-97.5 719.5,-97.5 719.5,-67.5 606.5,-67.5"/>
<text text-anchor="start" x="614.5" y="-85.5" font-family="Helvetica,sans-Serif" font-size="10.00">nil/crypto3/algebra</text>
<text text-anchor="middle" x="663" y="-74.5" font-family="Helvetica,sans-Serif" font-size="10.00">/curves/alt_bn128.hpp</text>
</a>
</g>
</g>
<!-- Node1&#45;&gt;Node7 -->
<g id="edge6" class="edge">
<title>Node1&#45;&gt;Node7</title>
<path fill="none" stroke="midnightblue" d="M1472.71,-153.52C1351.44,-151.3 875.13,-140.68 729,-109 720.46,-107.15 711.57,-104.36 703.18,-101.29"/>
<polygon fill="midnightblue" stroke="midnightblue" points="704.2,-97.93 693.61,-97.6 701.68,-104.46 704.2,-97.93"/>
</g>
<!-- Node8 -->
<g id="node8" class="node">
<title>Node8</title>
<g id="a_node8"><a xlink:title=" ">
<polygon fill="none" stroke="#bfbfbf" points="738,-62 738,-103 864,-103 864,-62 738,-62"/>
<text text-anchor="start" x="746" y="-91" font-family="Helvetica,sans-Serif" font-size="10.00">nil/crypto3/algebra</text>
<text text-anchor="start" x="746" y="-80" font-family="Helvetica,sans-Serif" font-size="10.00">/fields/arithmetic_params</text>
<text text-anchor="middle" x="801" y="-69" font-family="Helvetica,sans-Serif" font-size="10.00">/alt_bn128.hpp</text>
</a>
</g>
</g>
<!-- Node1&#45;&gt;Node8 -->
<g id="edge7" class="edge">
<title>Node1&#45;&gt;Node8</title>
<path fill="none" stroke="midnightblue" d="M1472.78,-152.99C1366.45,-149.01 990.16,-133.48 873,-109 868.91,-108.15 864.74,-107.12 860.56,-105.97"/>
<polygon fill="midnightblue" stroke="midnightblue" points="861.44,-102.58 850.86,-103.09 859.46,-109.29 861.44,-102.58"/>
</g>
<!-- Node9 -->
<g id="node9" class="node">
<title>Node9</title>
<g id="a_node9"><a xlink:title=" ">
<polygon fill="none" stroke="#bfbfbf" points="882,-62 882,-103 1006,-103 1006,-62 882,-62"/>
<text text-anchor="start" x="890" y="-91" font-family="Helvetica,sans-Serif" font-size="10.00">nil/crypto3/algebra</text>
<text text-anchor="start" x="890" y="-80" font-family="Helvetica,sans-Serif" font-size="10.00">/curves/params/multiexp</text>
<text text-anchor="middle" x="944" y="-69" font-family="Helvetica,sans-Serif" font-size="10.00">/alt_bn128.hpp</text>
</a>
</g>
</g>
<!-- Node1&#45;&gt;Node9 -->
<g id="edge8" class="edge">
<title>Node1&#45;&gt;Node9</title>
<path fill="none" stroke="midnightblue" d="M1472.95,-153.86C1397.8,-152.97 1186.02,-146.99 1015,-109 1011.15,-108.15 1007.23,-107.14 1003.3,-106.03"/>
<polygon fill="midnightblue" stroke="midnightblue" points="1004.16,-102.63 993.57,-103.09 1002.13,-109.33 1004.16,-102.63"/>
</g>
<!-- Node10 -->
<g id="node10" class="node">
<title>Node10</title>
<g id="a_node10"><a xlink:title=" ">
<polygon fill="none" stroke="#bfbfbf" points="1024,-62 1024,-103 1132,-103 1132,-62 1024,-62"/>
<text text-anchor="start" x="1032" y="-91" font-family="Helvetica,sans-Serif" font-size="10.00">nil/crypto3/algebra</text>
<text text-anchor="start" x="1032" y="-80" font-family="Helvetica,sans-Serif" font-size="10.00">/curves/params/wnaf</text>
<text text-anchor="middle" x="1078" y="-69" font-family="Helvetica,sans-Serif" font-size="10.00">/alt_bn128.hpp</text>
</a>
</g>
</g>
<!-- Node1&#45;&gt;Node10 -->
<g id="edge9" class="edge">
<title>Node1&#45;&gt;Node10</title>
<path fill="none" stroke="midnightblue" d="M1472.99,-152.97C1411.8,-150.19 1262,-140.47 1141,-109 1138.01,-108.22 1134.98,-107.34 1131.94,-106.38"/>
<polygon fill="midnightblue" stroke="midnightblue" points="1132.85,-102.99 1122.25,-103.08 1130.59,-109.62 1132.85,-102.99"/>
</g>
<!-- Node11 -->
<g id="node11" class="node">
<title>Node11</title>
<g id="a_node11"><a xlink:title=" ">
<polygon fill="none" stroke="#bfbfbf" points="1150.5,-67.5 1150.5,-97.5 1265.5,-97.5 1265.5,-67.5 1150.5,-67.5"/>
<text text-anchor="start" x="1158.5" y="-85.5" font-family="Helvetica,sans-Serif" font-size="10.00">nil/crypto3/zk/blueprint</text>
<text text-anchor="middle" x="1208" y="-74.5" font-family="Helvetica,sans-Serif" font-size="10.00">/plonk.hpp</text>
</a>
</g>
</g>
<!-- Node1&#45;&gt;Node11 -->
<g id="edge10" class="edge">
<title>Node1&#45;&gt;Node11</title>
<path fill="none" stroke="midnightblue" d="M1472.67,-150C1429.33,-143.52 1344.23,-129.36 1274,-109 1266.37,-106.79 1258.38,-104.06 1250.7,-101.23"/>
<polygon fill="midnightblue" stroke="midnightblue" points="1251.78,-97.9 1241.19,-97.61 1249.29,-104.44 1251.78,-97.9"/>
</g>
<!-- Node12 -->
<g id="node12" class="node">
<title>Node12</title>
<g id="a_node12"><a xlink:title=" ">
<polygon fill="none" stroke="#bfbfbf" points="1283.5,-62 1283.5,-103 1414.5,-103 1414.5,-62 1283.5,-62"/>
<text text-anchor="start" x="1291.5" y="-91" font-family="Helvetica,sans-Serif" font-size="10.00">nil/crypto3/zk/components</text>
<text text-anchor="start" x="1291.5" y="-80" font-family="Helvetica,sans-Serif" font-size="10.00">/hashes/poseidon/plonk</text>
<text text-anchor="middle" x="1349" y="-69" font-family="Helvetica,sans-Serif" font-size="10.00">/poseidon_15_wires.hpp</text>
</a>
</g>
</g>
<!-- Node1&#45;&gt;Node12 -->
<g id="edge11" class="edge">
<title>Node1&#45;&gt;Node12</title>
<path fill="none" stroke="midnightblue" d="M1482.67,-145.5C1462.45,-136.12 1429.02,-120.61 1400.65,-107.46"/>
<polygon fill="midnightblue" stroke="midnightblue" points="1401.8,-104.13 1391.25,-103.1 1398.85,-110.48 1401.8,-104.13"/>
</g>
<!-- Node13 -->
<g id="node13" class="node">
<title>Node13</title>
<g id="a_node13"><a xlink:title=" ">
<polygon fill="none" stroke="#bfbfbf" points="1432.5,-56.5 1432.5,-108.5 1569.5,-108.5 1569.5,-56.5 1432.5,-56.5"/>
<text text-anchor="start" x="1440.5" y="-96.5" font-family="Helvetica,sans-Serif" font-size="10.00">nil/crypto3/zk/components</text>
<text text-anchor="start" x="1440.5" y="-85.5" font-family="Helvetica,sans-Serif" font-size="10.00">/algebra/curves/pasta/plonk</text>
<text text-anchor="start" x="1440.5" y="-74.5" font-family="Helvetica,sans-Serif" font-size="10.00">/variable_base_endo_scalar</text>
<text text-anchor="middle" x="1501" y="-63.5" font-family="Helvetica,sans-Serif" font-size="10.00">_mul_15_wires.hpp</text>
</a>
</g>
</g>
<!-- Node1&#45;&gt;Node13 -->
<g id="edge12" class="edge">
<title>Node1&#45;&gt;Node13</title>
<path fill="none" stroke="midnightblue" d="M1501,-145.36C1501,-138.59 1501,-128.69 1501,-118.79"/>
<polygon fill="midnightblue" stroke="midnightblue" points="1504.5,-118.6 1501,-108.6 1497.5,-118.6 1504.5,-118.6"/>
</g>
<!-- Node14 -->
<g id="node14" class="node">
<title>Node14</title>
<g id="a_node14"><a xlink:title=" ">
<polygon fill="none" stroke="#bfbfbf" points="1588,-67.5 1588,-97.5 1716,-97.5 1716,-67.5 1588,-67.5"/>
<text text-anchor="start" x="1596" y="-85.5" font-family="Helvetica,sans-Serif" font-size="10.00">nil/crypto3/hash/algorithm</text>
<text text-anchor="middle" x="1652" y="-74.5" font-family="Helvetica,sans-Serif" font-size="10.00">/hash.hpp</text>
</a>
</g>
</g>
<!-- Node1&#45;&gt;Node14 -->
<g id="edge13" class="edge">
<title>Node1&#45;&gt;Node14</title>
<path fill="none" stroke="midnightblue" d="M1519.21,-145.5C1542.22,-134.76 1582.43,-115.98 1612.6,-101.9"/>
<polygon fill="midnightblue" stroke="midnightblue" points="1614.42,-104.91 1622,-97.51 1611.46,-98.57 1614.42,-104.91"/>
</g>
<!-- Node15 -->
<g id="node15" class="node">
<title>Node15</title>
<g id="a_node15"><a xlink:title=" ">
<polygon fill="none" stroke="#bfbfbf" points="1734.5,-73 1734.5,-92 1873.5,-92 1873.5,-73 1734.5,-73"/>
<text text-anchor="middle" x="1804" y="-80" font-family="Helvetica,sans-Serif" font-size="10.00">nil/crypto3/hash/keccak.hpp</text>
</a>
</g>
</g>
<!-- Node1&#45;&gt;Node15 -->
<g id="edge14" class="edge">
<title>Node1&#45;&gt;Node15</title>
<path fill="none" stroke="midnightblue" d="M1529.17,-149.4C1571.86,-142.2 1655.34,-127.18 1725,-109 1740.04,-105.08 1756.42,-99.93 1770.35,-95.3"/>
<polygon fill="midnightblue" stroke="midnightblue" points="1771.65,-98.55 1780.01,-92.03 1769.41,-91.92 1771.65,-98.55"/>
</g>
<!-- Node16 -->
<g id="node16" class="node">
<title>Node16</title>
<g id="a_node16"><a xlink:title=" ">
<polygon fill="none" stroke="#bfbfbf" points="1892,-73 1892,-92 2020,-92 2020,-73 1892,-73"/>
<text text-anchor="middle" x="1956" y="-80" font-family="Helvetica,sans-Serif" font-size="10.00">nil/crypto3/hash/sha2.hpp</text>
</a>
</g>
</g>
<!-- Node1&#45;&gt;Node16 -->
<g id="edge15" class="edge">
<title>Node1&#45;&gt;Node16</title>
<path fill="none" stroke="midnightblue" d="M1529.08,-152.74C1592.64,-149.45 1752.14,-138.68 1882,-109 1896.57,-105.67 1912.27,-100.5 1925.45,-95.68"/>
<polygon fill="midnightblue" stroke="midnightblue" points="1926.85,-98.89 1934.98,-92.1 1924.39,-92.34 1926.85,-98.89"/>
</g>
<!-- Node17 -->
<g id="node17" class="node">
<title>Node17</title>
<g id="a_node17"><a xlink:title=" ">
<polygon fill="none" stroke="#bfbfbf" points="2038.5,-67.5 2038.5,-97.5 2137.5,-97.5 2137.5,-67.5 2038.5,-67.5"/>
<text text-anchor="start" x="2046.5" y="-85.5" font-family="Helvetica,sans-Serif" font-size="10.00">nil/crypto3/pubkey</text>
<text text-anchor="middle" x="2088" y="-74.5" font-family="Helvetica,sans-Serif" font-size="10.00">/algorithm/sign.hpp</text>
</a>
</g>
</g>
<!-- Node1&#45;&gt;Node17 -->
<g id="edge16" class="edge">
<title>Node1&#45;&gt;Node17</title>
<path fill="none" stroke="midnightblue" d="M1529.25,-152.79C1624.43,-148.54 1932.87,-133.19 2029,-109 2036.29,-107.17 2043.83,-104.53 2050.98,-101.64"/>
<polygon fill="midnightblue" stroke="midnightblue" points="2052.62,-104.75 2060.44,-97.6 2049.87,-98.31 2052.62,-104.75"/>
</g>
<!-- Node18 -->
<g id="node18" class="node">
<title>Node18</title>
<g id="a_node18"><a xlink:title=" ">
<polygon fill="none" stroke="#bfbfbf" points="2156,-67.5 2156,-97.5 2252,-97.5 2252,-67.5 2156,-67.5"/>
<text text-anchor="start" x="2164" y="-85.5" font-family="Helvetica,sans-Serif" font-size="10.00">nil/crypto3/pubkey</text>
<text text-anchor="middle" x="2204" y="-74.5" font-family="Helvetica,sans-Serif" font-size="10.00">/eddsa.hpp</text>
</a>
</g>
</g>
<!-- Node1&#45;&gt;Node18 -->
<g id="edge17" class="edge">
<title>Node1&#45;&gt;Node18</title>
<path fill="none" stroke="midnightblue" d="M1529.3,-153.32C1637.71,-150.5 2026.39,-138.52 2146,-109 2153.27,-107.21 2160.77,-104.56 2167.87,-101.65"/>
<polygon fill="midnightblue" stroke="midnightblue" points="2169.47,-104.77 2177.24,-97.57 2166.68,-98.35 2169.47,-104.77"/>
</g>
<!-- Node19 -->
<g id="node19" class="node">
<title>Node19</title>
<g id="a_node19"><a xlink:title=" ">
<polygon fill="none" stroke="#bfbfbf" points="2270.5,-67.5 2270.5,-97.5 2393.5,-97.5 2393.5,-67.5 2270.5,-67.5"/>
<text text-anchor="start" x="2278.5" y="-85.5" font-family="Helvetica,sans-Serif" font-size="10.00">nil/crypto3/zk/algorithms</text>
<text text-anchor="middle" x="2332" y="-74.5" font-family="Helvetica,sans-Serif" font-size="10.00">/generate.hpp</text>
</a>
</g>
</g>
<!-- Node1&#45;&gt;Node19 -->
<g id="edge18" class="edge">
<title>Node1&#45;&gt;Node19</title>
<path fill="none" stroke="midnightblue" d="M1529.24,-153.41C1649.19,-150.71 2116.94,-138.5 2261,-109 2270.33,-107.09 2280.09,-104.21 2289.27,-101.06"/>
<polygon fill="midnightblue" stroke="midnightblue" points="2290.75,-104.25 2298.98,-97.57 2288.38,-97.66 2290.75,-104.25"/>
</g>
<!-- Node20 -->
<g id="node20" class="node">
<title>Node20</title>
<g id="a_node20"><a xlink:title=" ">
<polygon fill="none" stroke="#bfbfbf" points="2411.5,-62 2411.5,-103 2528.5,-103 2528.5,-62 2411.5,-62"/>
<text text-anchor="start" x="2419.5" y="-91" font-family="Helvetica,sans-Serif" font-size="10.00">nil/crypto3/zk/snark</text>
<text text-anchor="start" x="2419.5" y="-80" font-family="Helvetica,sans-Serif" font-size="10.00">/systems/plonk/pickles</text>
<text text-anchor="middle" x="2470" y="-69" font-family="Helvetica,sans-Serif" font-size="10.00">/proof.hpp</text>
</a>
</g>
</g>
<!-- Node1&#45;&gt;Node20 -->
<g id="edge19" class="edge">
<title>Node1&#45;&gt;Node20</title>
<path fill="none" stroke="midnightblue" d="M1529.4,-153.76C1662.96,-152.44 2229.28,-144.79 2402,-109 2405.92,-108.19 2409.91,-107.19 2413.89,-106.05"/>
<polygon fill="midnightblue" stroke="midnightblue" points="2415.22,-109.31 2423.74,-103 2413.15,-102.62 2415.22,-109.31"/>
</g>
<!-- Node21 -->
<g id="node21" class="node">
<title>Node21</title>
<g id="a_node21"><a xlink:title=" ">
<polygon fill="none" stroke="#bfbfbf" points="2546.5,-62 2546.5,-103 2665.5,-103 2665.5,-62 2546.5,-62"/>
<text text-anchor="start" x="2554.5" y="-91" font-family="Helvetica,sans-Serif" font-size="10.00">nil/crypto3/zk/snark</text>
<text text-anchor="start" x="2554.5" y="-80" font-family="Helvetica,sans-Serif" font-size="10.00">/systems/plonk/redshift</text>
<text text-anchor="middle" x="2606" y="-69" font-family="Helvetica,sans-Serif" font-size="10.00">/prover.hpp</text>
</a>
</g>
</g>
<!-- Node1&#45;&gt;Node21 -->
<g id="edge20" class="edge">
<title>Node1&#45;&gt;Node21</title>
<path fill="none" stroke="midnightblue" d="M1529.2,-153.95C1674.13,-153.54 2336.24,-149.42 2537,-109 2541.08,-108.18 2545.25,-107.15 2549.41,-105.98"/>
<polygon fill="midnightblue" stroke="midnightblue" points="2550.51,-109.31 2559.05,-103.04 2548.47,-102.61 2550.51,-109.31"/>
</g>
<!-- Node22 -->
<g id="node22" class="node">
<title>Node22</title>
<g id="a_node22"><a xlink:title=" ">
<polygon fill="none" stroke="#bfbfbf" points="2683.5,-62 2683.5,-103 2802.5,-103 2802.5,-62 2683.5,-62"/>
<text text-anchor="start" x="2691.5" y="-91" font-family="Helvetica,sans-Serif" font-size="10.00">nil/crypto3/zk/snark</text>
<text text-anchor="start" x="2691.5" y="-80" font-family="Helvetica,sans-Serif" font-size="10.00">/systems/plonk/redshift</text>
<text text-anchor="middle" x="2743" y="-69" font-family="Helvetica,sans-Serif" font-size="10.00">/preprocessor.hpp</text>
</a>
</g>
</g>
<!-- Node1&#45;&gt;Node22 -->
<g id="edge21" class="edge">
<title>Node1&#45;&gt;Node22</title>
<path fill="none" stroke="midnightblue" d="M1529.24,-154.12C1685.45,-154.6 2444.88,-154.53 2674,-109 2678.09,-108.19 2682.25,-107.17 2686.41,-106.01"/>
<polygon fill="midnightblue" stroke="midnightblue" points="2687.51,-109.33 2696.06,-103.08 2685.47,-102.64 2687.51,-109.33"/>
</g>
<!-- Node23 -->
<g id="node23" class="node">
<title>Node23</title>
<g id="a_node23"><a xlink:title=" ">
<polygon fill="none" stroke="#bfbfbf" points="2821,-67.5 2821,-97.5 2961,-97.5 2961,-67.5 2821,-67.5"/>
<text text-anchor="start" x="2829" y="-85.5" font-family="Helvetica,sans-Serif" font-size="10.00">nil/crypto3/zk/math</text>
<text text-anchor="middle" x="2891" y="-74.5" font-family="Helvetica,sans-Serif" font-size="10.00">/non_linear_combination.hpp</text>
</a>
</g>
</g>
<!-- Node1&#45;&gt;Node23 -->
<g id="edge22" class="edge">
<title>Node1&#45;&gt;Node23</title>
<path fill="none" stroke="midnightblue" d="M1529.17,-154.08C1695.64,-154.4 2552.3,-153.8 2811,-109 2822,-107.1 2833.57,-104.05 2844.4,-100.72"/>
<polygon fill="midnightblue" stroke="midnightblue" points="2845.64,-103.99 2854.09,-97.6 2843.49,-97.33 2845.64,-103.99"/>
</g>
<!-- Node24 -->
<g id="node24" class="node">
<title>Node24</title>
<g id="a_node24"><a xlink:href="../../d0/d53/sexp_8hpp.html" target="_top" xlink:title=" ">
<polygon fill="none" stroke="black" points="2979,-73 2979,-92 3113,-92 3113,-73 2979,-73"/>
<text text-anchor="middle" x="3046" y="-80" font-family="Helvetica,sans-Serif" font-size="10.00">nil/mina/auxproof/sexp.hpp</text>
</a>
</g>
</g>
<!-- Node1&#45;&gt;Node24 -->
<g id="edge23" class="edge">
<title>Node1&#45;&gt;Node24</title>
<path fill="none" stroke="midnightblue" d="M1529.04,-153.63C1719.74,-151.09 2823.23,-135.28 2970,-109 2985.65,-106.2 3002.47,-100.82 3016.3,-95.72"/>
<polygon fill="midnightblue" stroke="midnightblue" points="3017.69,-98.93 3025.78,-92.09 3015.19,-92.39 3017.69,-98.93"/>
</g>
<!-- Node25 -->
<g id="node25" class="node">
<title>Node25</title>
<g id="a_node25"><a xlink:title=" ">
<polygon fill="none" stroke="#bfbfbf" points="2963,-0.5 2963,-19.5 3007,-19.5 3007,-0.5 2963,-0.5"/>
<text text-anchor="middle" x="2985" y="-7.5" font-family="Helvetica,sans-Serif" font-size="10.00">vector</text>
</a>
</g>
</g>
<!-- Node24&#45;&gt;Node25 -->
<g id="edge24" class="edge">
<title>Node24&#45;&gt;Node25</title>
<path fill="none" stroke="midnightblue" d="M3038.52,-72.86C3028.73,-61.54 3011.39,-41.5 2999.1,-27.29"/>
<polygon fill="midnightblue" stroke="midnightblue" points="3001.73,-24.99 2992.54,-19.72 2996.44,-29.57 3001.73,-24.99"/>
</g>
<!-- Node26 -->
<g id="node26" class="node">
<title>Node26</title>
<g id="a_node26"><a xlink:title=" ">
<polygon fill="none" stroke="#bfbfbf" points="3025.5,-0.5 3025.5,-19.5 3066.5,-19.5 3066.5,-0.5 3025.5,-0.5"/>
<text text-anchor="middle" x="3046" y="-7.5" font-family="Helvetica,sans-Serif" font-size="10.00">string</text>
</a>
</g>
</g>
<!-- Node24&#45;&gt;Node26 -->
<g id="edge25" class="edge">
<title>Node24&#45;&gt;Node26</title>
<path fill="none" stroke="midnightblue" d="M3046,-72.86C3046,-62.18 3046,-43.72 3046,-29.73"/>
<polygon fill="midnightblue" stroke="midnightblue" points="3049.5,-29.72 3046,-19.72 3042.5,-29.72 3049.5,-29.72"/>
</g>
<!-- Node27 -->
<g id="node27" class="node">
<title>Node27</title>
<g id="a_node27"><a xlink:title=" ">
<polygon fill="none" stroke="#bfbfbf" points="3085,-0.5 3085,-19.5 3131,-19.5 3131,-0.5 3085,-0.5"/>
<text text-anchor="middle" x="3108" y="-7.5" font-family="Helvetica,sans-Serif" font-size="10.00">cstdint</text>
</a>
</g>
</g>
<!-- Node24&#45;&gt;Node27 -->
<g id="edge26" class="edge">
<title>Node24&#45;&gt;Node27</title>
<path fill="none" stroke="midnightblue" d="M3053.6,-72.86C3063.55,-61.54 3081.18,-41.5 3093.67,-27.29"/>
<polygon fill="midnightblue" stroke="midnightblue" points="3096.36,-29.54 3100.34,-19.72 3091.1,-24.91 3096.36,-29.54"/>
</g>
</g>
</svg>
